<svg xml:space="preserve" style="enable-background:new 0 0 753.4 131.3;" viewBox="0 0 753.4 131.3" height="131.3px" width="753.4px" y="0px" x="0px" xmlns:xlink="http://www.w3.org/1999/xlink" xmlns="http://www.w3.org/2000/svg" id="Layer_1" version="1.1">
<style type="text/css">
	.st0{fill-rule:evenodd;clip-rule:evenodd;fill:#166372;}
	.st1{fill:#63666B;}
</style>
<path d="M33.4,52.9c-6,0-10.8-4.4-10.8-9.8s4.8-9.8,10.8-9.8s10.8,4.4,10.8,9.8S39.3,52.9,33.4,52.9 M33.4,12.7
	C14.9,12.7,0,26.3,0,43.1s14.9,30.4,33.4,30.4c18.4,0,33.4-13.6,33.4-30.4S51.8,12.7,33.4,12.7" class="st0"></path>
<path d="M157.9,43.1c0,16.8-14.9,30.4-33.4,30.4S91.2,59.9,91.2,43.1s14.9-30.4,33.4-30.4S157.9,26.3,157.9,43.1" class="st0"></path>
<path d="M270.6,0c-35.1,0-62.6,18.9-62.6,43.1c0,24.2,27.5,43.1,62.6,43.1c19.4,0,37-5.8,48.8-15.9v10.4
	c0,15.9-22.3,29.3-48.8,29.3c-22.9,0-42.9-9.9-47.8-23.5c-1.2-3.5-5.3-5.4-8.8-4.2c-3.6,1.3-5.5,5.2-4.2,8.8
	c6.8,19.2,31.8,32.6,60.7,32.6c35.1,0,62.6-18.9,62.6-43.1V43.1C333.2,18.9,305.7,0,270.6,0z M270.6,72.4
	c-26.4,0-48.8-13.4-48.8-29.3c0-15.9,22.3-29.3,48.8-29.3c26.4,0,48.8,13.4,48.8,29.3C319.4,59,297.1,72.4,270.6,72.4z" class="st1"></path>
<path d="M458.9,0c-35.1,0-62.6,18.9-62.6,43.1c0,24.2,27.5,43.1,62.6,43.1c35.1,0,62.6-18.9,62.6-43.1
	C521.5,18.9,494,0,458.9,0z M458.9,72.4c-26.4,0-48.8-13.4-48.8-29.3c0-15.9,22.3-29.3,48.8-29.3c26.4,0,48.8,13.4,48.8,29.3
	C507.7,59,485.4,72.4,458.9,72.4z" class="st1"></path>
<path d="M653.9,58.5c-2.5-2.6-7.1-2.7-9.7-0.2c-9.1,8.8-24.6,14.1-41.4,14.1c-22,0-41.9-9.5-47.4-22.5h96
	c3.8,0,6.9-3.1,6.9-6.9c0-24.6-25.4-43.1-59.1-43.1l0,0c-33.7,0-59.1,18.5-59.1,43.1c0,24.6,27.5,43.1,62.6,43.1
	c20.3,0,39.4-6.7,51-17.9C656.4,65.6,656.5,61.3,653.9,58.5z M599.2,13.8c21.7,0,39.5,9.2,44.1,22.5h-88.3
	C559.7,22.9,577.5,13.8,599.2,13.8z" class="st1"></path>
<path d="M746.5,72.4c-26.4,0-48.8-13.4-48.8-29.3V6.9c0-3.8-3.1-6.9-6.9-6.9s-6.9,3.1-6.9,6.9v36.2
	c0,24.2,27.5,43.1,62.6,43.1c3.8,0,6.9-3.1,6.9-6.9S750.3,72.4,746.5,72.4z" class="st1"></path>
<path d="M367,0c-3.8,0-6.9,3.1-6.9,6.9v72.4c0,3.8,3.1,6.9,6.9,6.9c3.8,0,6.9-3.1,6.9-6.9V6.9C373.9,3.1,370.8,0,367,0z" class="st1"></path>
<path d="M367.9,120.9c-0.1-0.4-0.2-0.7-0.3-1.1c-0.1-0.4-0.1-0.8-0.1-1.3V98.3h-3.1v20.4c0,0.6,0,1.2,0.1,1.7
	c0.1,0.5,0.2,1,0.4,1.4c0.2,0.4,0.3,0.9,0.6,1.2c0.2,0.4,0.5,0.7,0.8,1.1l2.7-1.3c-0.2-0.3-0.4-0.6-0.6-0.9
	C368.2,121.6,368,121.3,367.9,120.9z" class="st1"></path>
<path d="M387.8,106.1c-0.6-0.4-1.4-0.7-2.2-0.9c-0.9-0.2-1.8-0.2-2.8-0.2c-1.3,0-2.5,0.1-3.6,0.2
	c-1.1,0.1-2.2,0.3-3.2,0.4l0.3,2.4c1-0.1,2-0.2,3-0.3c1-0.1,2.1-0.1,3.2-0.1c0.8,0,1.5,0.1,2.1,0.2c0.6,0.2,1,0.4,1.4,0.7
	c0.3,0.3,0.6,0.7,0.7,1.2c0.1,0.5,0.2,1.1,0.2,1.8v0.4c-1.3,0-2.5,0.1-3.7,0.2c-1.2,0.1-2.4,0.2-3.4,0.3c-0.8,0.1-1.5,0.3-2.1,0.7
	c-0.6,0.3-1.1,0.7-1.5,1.2c-0.4,0.5-0.7,1-0.8,1.7c-0.2,0.6-0.3,1.3-0.3,2.1c0,1,0.1,1.8,0.4,2.5c0.3,0.7,0.7,1.3,1.2,1.7
	c0.6,0.5,1.3,0.8,2.2,1c0.9,0.2,1.9,0.3,3.1,0.3c1.6,0,3-0.1,4.3-0.3c1.3-0.2,2.5-0.6,3.5-1.2c0-0.5,0.1-1.1,0.1-1.6
	c0-0.5,0-1.1,0-1.6v-8.3c0-1.1-0.2-2.1-0.6-2.8C389,107.1,388.5,106.5,387.8,106.1z M386.8,117.8c0,0.4,0,0.9,0,1.3
	c0,0.5,0,0.9-0.1,1.3c-0.3,0.1-0.7,0.3-1.1,0.4c-0.4,0.1-0.7,0.2-1.1,0.2c-0.4,0.1-0.8,0.1-1.1,0.1c-0.4,0-0.7,0-1.1,0
	c-0.7,0-1.4,0-1.9-0.1c-0.5-0.1-1-0.3-1.3-0.5c-0.4-0.2-0.6-0.6-0.8-1c-0.2-0.4-0.3-0.9-0.3-1.6c0-0.6,0.1-1.1,0.2-1.5
	c0.1-0.4,0.3-0.7,0.5-1c0.2-0.3,0.5-0.5,0.9-0.6c0.4-0.2,0.8-0.3,1.3-0.4c0.4-0.1,0.9-0.2,1.4-0.2c0.5-0.1,1-0.1,1.5-0.1
	c0.5,0,1-0.1,1.6-0.1c0.5,0,1,0,1.5,0V117.8z" class="st1"></path>
<path d="M405,120.2l-5.3-15h-3.3l6,16.2c0.3,0.7,0.6,1.2,1,1.6c0.4,0.3,0.9,0.5,1.5,0.5c0.6,0,1.1-0.2,1.5-0.5
	c0.4-0.3,0.7-0.9,1-1.6l6.1-16.2h-3.2L405,120.2z" class="st1"></path>
<path d="M432.4,106.1c-0.6-0.4-1.4-0.7-2.2-0.9c-0.9-0.2-1.8-0.2-2.8-0.2c-1.3,0-2.5,0.1-3.6,0.2
	c-1.1,0.1-2.2,0.3-3.2,0.4l0.3,2.4c1-0.1,2-0.2,3-0.3c1-0.1,2.1-0.1,3.2-0.1c0.8,0,1.5,0.1,2.1,0.2c0.6,0.2,1,0.4,1.4,0.7
	c0.3,0.3,0.6,0.7,0.7,1.2c0.1,0.5,0.2,1.1,0.2,1.8v0.4c-1.3,0-2.5,0.1-3.7,0.2c-1.2,0.1-2.4,0.2-3.4,0.3c-0.8,0.1-1.5,0.3-2.1,0.7
	c-0.6,0.3-1.1,0.7-1.5,1.2c-0.4,0.5-0.7,1-0.8,1.7c-0.2,0.6-0.3,1.3-0.3,2.1c0,1,0.1,1.8,0.4,2.5c0.3,0.7,0.7,1.3,1.2,1.7
	c0.6,0.5,1.3,0.8,2.2,1c0.9,0.2,1.9,0.3,3.1,0.3c1.6,0,3-0.1,4.3-0.3c1.3-0.2,2.5-0.6,3.5-1.2c0-0.5,0.1-1.1,0.1-1.6
	c0-0.5,0-1.1,0-1.6v-8.3c0-1.1-0.2-2.1-0.6-2.8C433.6,107.1,433.1,106.5,432.4,106.1z M431.4,117.8c0,0.4,0,0.9,0,1.3
	c0,0.5,0,0.9-0.1,1.3c-0.3,0.1-0.7,0.3-1.1,0.4c-0.4,0.1-0.7,0.2-1.1,0.2c-0.4,0.1-0.8,0.1-1.1,0.1c-0.4,0-0.7,0-1.1,0
	c-0.7,0-1.4,0-1.9-0.1c-0.5-0.1-1-0.3-1.3-0.5c-0.4-0.2-0.6-0.6-0.8-1c-0.2-0.4-0.3-0.9-0.3-1.6c0-0.6,0.1-1.1,0.2-1.5
	c0.1-0.4,0.3-0.7,0.5-1c0.2-0.3,0.5-0.5,0.9-0.6c0.4-0.2,0.8-0.3,1.3-0.4c0.4-0.1,0.9-0.2,1.4-0.2c0.5-0.1,1-0.1,1.5-0.1
	c0.5,0,1-0.1,1.6-0.1c0.5,0,1,0,1.5,0V117.8z" class="st1"></path>
<path d="M458.6,120.9c-0.1-0.4-0.2-0.7-0.3-1.1c-0.1-0.4-0.1-0.8-0.1-1.3V98.3h-3.1v20.4c0,0.6,0,1.2,0.1,1.7
	c0.1,0.5,0.2,1,0.4,1.4c0.2,0.4,0.3,0.9,0.6,1.2c0.2,0.4,0.5,0.7,0.8,1.1l2.7-1.3c-0.2-0.3-0.4-0.6-0.6-0.9
	C458.8,121.6,458.7,121.3,458.6,120.9z" class="st1"></path>
<polygon points="466.7,107.4 469.1,107.4 469.4,98.3 466.4,98.3" class="st1"></polygon>
<path d="M488.8,106.1c-0.6-0.4-1.4-0.7-2.2-0.9c-0.9-0.2-1.8-0.2-2.8-0.2c-1.3,0-2.5,0.1-3.6,0.2
	c-1.1,0.1-2.2,0.3-3.2,0.4l0.3,2.4c1-0.1,2-0.2,3-0.3c1-0.1,2.1-0.1,3.2-0.1c0.8,0,1.5,0.1,2.1,0.2c0.6,0.2,1,0.4,1.4,0.7
	c0.3,0.3,0.6,0.7,0.7,1.2c0.1,0.5,0.2,1.1,0.2,1.8v0.4c-1.3,0-2.5,0.1-3.7,0.2c-1.2,0.1-2.4,0.2-3.4,0.3c-0.8,0.1-1.5,0.3-2.1,0.7
	c-0.6,0.3-1.1,0.7-1.5,1.2c-0.4,0.5-0.7,1-0.8,1.7c-0.2,0.6-0.3,1.3-0.3,2.1c0,1,0.1,1.8,0.4,2.5c0.3,0.7,0.7,1.3,1.2,1.7
	c0.6,0.5,1.3,0.8,2.2,1c0.9,0.2,1.9,0.3,3.1,0.3c1.6,0,3-0.1,4.3-0.3c1.3-0.2,2.5-0.6,3.5-1.2c0-0.5,0.1-1.1,0.1-1.6
	c0-0.5,0-1.1,0-1.6v-8.3c0-1.1-0.2-2.1-0.6-2.8C489.9,107.1,489.4,106.5,488.8,106.1z M487.8,117.8c0,0.4,0,0.9,0,1.3
	c0,0.5,0,0.9-0.1,1.3c-0.3,0.1-0.7,0.3-1.1,0.4c-0.4,0.1-0.7,0.2-1.1,0.2c-0.4,0.1-0.8,0.1-1.1,0.1c-0.4,0-0.7,0-1.1,0
	c-0.7,0-1.4,0-1.9-0.1c-0.5-0.1-1-0.3-1.3-0.5c-0.4-0.2-0.6-0.6-0.8-1c-0.2-0.4-0.3-0.9-0.3-1.6c0-0.6,0.1-1.1,0.2-1.5
	c0.1-0.4,0.3-0.7,0.5-1c0.2-0.3,0.5-0.5,0.9-0.6c0.4-0.2,0.8-0.3,1.3-0.4c0.4-0.1,0.9-0.2,1.4-0.2c0.5-0.1,1-0.1,1.5-0.1
	c0.5,0,1-0.1,1.6-0.1c0.5,0,1,0,1.5,0V117.8z" class="st1"></path>
<path d="M506.3,105c-0.6,0-1.2,0-1.8,0.1c-0.6,0.1-1.2,0.1-1.8,0.3c-0.6,0.1-1.2,0.3-1.8,0.5c-0.6,0.2-1.1,0.4-1.6,0.7
	c0,0.5-0.1,1.1-0.1,1.6c0,0.5,0,1.1,0,1.6v13.6h3.1V111c0-0.4,0-0.9,0-1.3c0-0.5,0-0.9,0.1-1.3c0.3-0.1,0.5-0.2,0.9-0.3
	c0.3-0.1,0.6-0.2,1-0.2c0.3-0.1,0.7-0.1,1-0.1c0.3,0,0.7,0,1,0c0.3,0,0.5,0,0.8,0c0.2,0,0.5,0,0.7,0.1l0.3-2.6c-0.3,0-0.5,0-0.8-0.1
	C506.9,105,506.6,105,506.3,105z" class="st1"></path>
<rect height="18.1" width="3.1" class="st1" y="105.3" x="514.9"></rect>
<path d="M518,98.5c-0.1-0.2-0.3-0.3-0.6-0.4c-0.2-0.1-0.5-0.1-0.9-0.1c-0.4,0-0.7,0-0.9,0.1c-0.2,0.1-0.4,0.2-0.6,0.4
	c-0.1,0.2-0.3,0.4-0.3,0.6c-0.1,0.3-0.1,0.6-0.1,1c0,0.4,0,0.7,0.1,1c0.1,0.3,0.2,0.5,0.3,0.6c0.1,0.2,0.3,0.3,0.6,0.3
	c0.2,0.1,0.6,0.1,0.9,0.1c0.4,0,0.7,0,0.9-0.1c0.2-0.1,0.4-0.2,0.6-0.3c0.1-0.2,0.2-0.4,0.3-0.6c0.1-0.3,0.1-0.6,0.1-1
	c0-0.4,0-0.7-0.1-1C518.2,98.9,518.1,98.7,518,98.5z" class="st1"></path>
<path d="M538.3,106.1c-0.6-0.4-1.4-0.7-2.2-0.9c-0.9-0.2-1.8-0.2-2.8-0.2c-1.3,0-2.5,0.1-3.6,0.2
	c-1.1,0.1-2.2,0.3-3.2,0.4l0.3,2.4c1-0.1,2-0.2,3-0.3c1-0.1,2.1-0.1,3.2-0.1c0.8,0,1.5,0.1,2.1,0.2c0.6,0.2,1,0.4,1.4,0.7
	c0.3,0.3,0.6,0.7,0.7,1.2c0.1,0.5,0.2,1.1,0.2,1.8v0.4c-1.3,0-2.5,0.1-3.7,0.2c-1.2,0.1-2.4,0.2-3.4,0.3c-0.8,0.1-1.5,0.3-2.1,0.7
	c-0.6,0.3-1.1,0.7-1.5,1.2c-0.4,0.5-0.7,1-0.8,1.7c-0.2,0.6-0.3,1.3-0.3,2.1c0,1,0.1,1.8,0.4,2.5c0.3,0.7,0.7,1.3,1.2,1.7
	c0.6,0.5,1.3,0.8,2.2,1c0.9,0.2,1.9,0.3,3.1,0.3c1.6,0,3-0.1,4.3-0.3c1.3-0.2,2.5-0.6,3.5-1.2c0-0.5,0.1-1.1,0.1-1.6
	c0-0.5,0-1.1,0-1.6v-8.3c0-1.1-0.2-2.1-0.6-2.8C539.4,107.1,538.9,106.5,538.3,106.1z M537.3,117.8c0,0.4,0,0.9,0,1.3
	c0,0.5,0,0.9-0.1,1.3c-0.3,0.1-0.7,0.3-1.1,0.4c-0.4,0.1-0.7,0.2-1.1,0.2c-0.4,0.1-0.8,0.1-1.1,0.1c-0.4,0-0.7,0-1.1,0
	c-0.7,0-1.4,0-1.9-0.1c-0.5-0.1-1-0.3-1.3-0.5c-0.4-0.2-0.6-0.6-0.8-1c-0.2-0.4-0.3-0.9-0.3-1.6c0-0.6,0.1-1.1,0.2-1.5
	c0.1-0.4,0.3-0.7,0.5-1c0.2-0.3,0.5-0.5,0.9-0.6c0.4-0.2,0.8-0.3,1.3-0.4c0.4-0.1,0.9-0.2,1.4-0.2c0.5-0.1,1-0.1,1.5-0.1
	c0.5,0,1-0.1,1.6-0.1c0.5,0,1,0,1.5,0V117.8z" class="st1"></path>
<path d="M571.2,120.9c-0.5,0.1-1.1,0.1-1.6,0.1c-0.9,0-1.7-0.1-2.3-0.2c-0.6-0.1-1.2-0.3-1.6-0.6c-0.4-0.3-0.8-0.6-1-1
	c-0.2-0.4-0.4-0.8-0.5-1.3c-0.1-0.5-0.2-1.1-0.2-1.7c0-0.6-0.1-1.3-0.1-2.1c0-0.8,0-1.5,0.1-2.2c0-0.6,0.1-1.2,0.3-1.7
	c0.1-0.5,0.3-0.9,0.6-1.2c0.3-0.3,0.6-0.6,1-0.8c0.4-0.2,1-0.4,1.6-0.5c0.6-0.1,1.4-0.1,2.3-0.1c0.5,0,1,0,1.6,0.1
	c0.5,0.1,1,0.1,1.5,0.2l0.3-2.3c-0.6-0.2-1.2-0.3-1.9-0.4c-0.7-0.1-1.5-0.2-2.4-0.2c-1.1,0-2.1,0.1-2.9,0.3
	c-0.8,0.2-1.5,0.4-2.1,0.8c-0.6,0.3-1.1,0.8-1.5,1.3c-0.4,0.5-0.7,1.1-0.9,1.8c-0.2,0.7-0.4,1.4-0.5,2.3c-0.1,0.8-0.1,1.7-0.1,2.7
	c0,0.8,0,1.7,0.1,2.5c0.1,0.8,0.2,1.5,0.4,2.2c0.2,0.7,0.5,1.3,0.8,1.9c0.3,0.6,0.8,1.1,1.3,1.5c0.5,0.4,1.2,0.7,1.9,1
	c0.7,0.2,1.6,0.4,2.6,0.4c1,0,1.9-0.1,2.8-0.2c0.8-0.1,1.6-0.3,2.4-0.4l-0.3-2.4C572.2,120.7,571.7,120.8,571.2,120.9z" class="st1"></path>
<path d="M595,108.2c-0.2-0.5-0.4-0.9-0.7-1.3c-0.3-0.4-0.7-0.7-1.3-1c-0.5-0.3-1.2-0.5-1.9-0.6
	c-0.8-0.1-1.7-0.2-2.7-0.2c-0.9,0-1.8,0.1-2.6,0.2c-0.8,0.1-1.6,0.3-2.3,0.5v-7.5h-3.1v25.1h3.1v-15c0.6-0.2,1.3-0.4,2-0.6
	c0.7-0.1,1.4-0.2,2-0.2c0.7,0,1.3,0,1.8,0.1c0.5,0.1,0.9,0.2,1.3,0.4c0.4,0.2,0.6,0.4,0.9,0.6c0.2,0.2,0.4,0.5,0.5,0.9
	c0.1,0.3,0.2,0.7,0.3,1.1c0,0.4,0.1,0.9,0.1,1.4v11.3h3.1v-11.8c0-0.6,0-1.2-0.1-1.8C595.3,109.2,595.1,108.7,595,108.2z" class="st1"></path>
<path d="M618.1,109c-0.2-0.6-0.5-1.2-0.9-1.7c-0.4-0.5-0.9-0.9-1.5-1.3c-0.6-0.3-1.3-0.6-2.1-0.8
	c-0.8-0.2-1.7-0.3-2.8-0.3c-1.5,0-2.8,0.2-3.8,0.5c-1,0.4-1.8,0.9-2.5,1.7c-0.6,0.8-1.1,1.7-1.3,2.9c-0.3,1.2-0.4,2.6-0.4,4.2
	c0,0.9,0,1.7,0.1,2.6c0.1,0.8,0.3,1.6,0.5,2.2c0.2,0.7,0.5,1.3,0.9,1.9c0.4,0.6,0.8,1,1.4,1.4c0.6,0.4,1.2,0.7,2,0.9
	c0.8,0.2,1.6,0.3,2.6,0.3c0.9,0,1.7,0,2.4-0.1c0.7,0,1.4-0.1,2-0.1c0.6-0.1,1.2-0.1,1.7-0.2c0.5-0.1,1.1-0.2,1.6-0.2l-0.3-2.4
	c-0.9,0.1-1.9,0.2-3,0.3c-1.1,0.1-2.2,0.2-3.4,0.2c-0.9,0-1.7-0.1-2.4-0.3c-0.7-0.2-1.2-0.5-1.6-0.9c-0.4-0.4-0.8-0.9-1-1.5
	c-0.2-0.6-0.4-1.4-0.4-2.3l3.8-0.2c0.4,0,0.9,0,1.4-0.1c0.5,0,1-0.1,1.6-0.1c0.5,0,1.1-0.1,1.6-0.2c0.6-0.1,1.1-0.1,1.6-0.2
	c0.5-0.1,1-0.1,1.5-0.2c0.5-0.1,0.9-0.1,1.2-0.2c0-0.3,0-0.5,0-0.8c0-0.3,0-0.5,0-0.8c0-0.9-0.1-1.7-0.1-2.4
	C618.5,110.3,618.3,109.6,618.1,109z M615.6,112.7c0,0.2,0,0.4,0,0.5c-0.4,0-0.8,0.1-1.3,0.1c-0.5,0.1-0.9,0.1-1.4,0.1
	c-0.5,0-1,0.1-1.4,0.1c-0.5,0-0.9,0.1-1.3,0.1l-4.2,0.2c0-1,0.1-1.9,0.2-2.7c0.1-0.8,0.4-1.5,0.7-2c0.4-0.6,0.9-1,1.5-1.3
	c0.6-0.3,1.5-0.4,2.6-0.4c0.9,0,1.6,0.1,2.2,0.3c0.6,0.2,1.1,0.5,1.5,0.9c0.4,0.4,0.6,0.9,0.8,1.5c0.2,0.6,0.2,1.2,0.2,2
	C615.6,112.3,615.6,112.5,615.6,112.7z" class="st1"></path>
<path d="M646.1,105c-0.6,0-1.2,0-1.8,0.1c-0.6,0.1-1.2,0.1-1.8,0.3c-0.6,0.1-1.2,0.3-1.8,0.5c-0.6,0.2-1.1,0.4-1.6,0.7
	c0,0.5-0.1,1.1-0.1,1.6c0,0.5,0,1.1,0,1.6v13.6h3.1V111c0-0.4,0-0.9,0-1.3c0-0.5,0-0.9,0.1-1.3c0.3-0.1,0.5-0.2,0.9-0.3
	c0.3-0.1,0.6-0.2,1-0.2c0.3-0.1,0.7-0.1,1-0.1c0.3,0,0.7,0,1,0c0.3,0,0.5,0,0.8,0c0.2,0,0.5,0,0.7,0.1l0.3-2.6c-0.3,0-0.5,0-0.8-0.1
	C646.7,105,646.4,105,646.1,105z" class="st1"></path>
<path d="M668.8,109c-0.2-0.6-0.5-1.2-0.9-1.7c-0.4-0.5-0.9-0.9-1.5-1.3c-0.6-0.3-1.3-0.6-2.1-0.8
	c-0.8-0.2-1.7-0.3-2.8-0.3c-1.5,0-2.8,0.2-3.8,0.5c-1,0.4-1.8,0.9-2.5,1.7c-0.6,0.8-1.1,1.7-1.3,2.9c-0.3,1.2-0.4,2.6-0.4,4.2
	c0,0.9,0,1.7,0.1,2.6c0.1,0.8,0.3,1.6,0.5,2.2c0.2,0.7,0.5,1.3,0.9,1.9c0.4,0.6,0.8,1,1.4,1.4c0.6,0.4,1.2,0.7,2,0.9
	c0.8,0.2,1.6,0.3,2.6,0.3c0.9,0,1.7,0,2.4-0.1c0.7,0,1.4-0.1,2-0.1c0.6-0.1,1.2-0.1,1.7-0.2c0.5-0.1,1.1-0.2,1.6-0.2l-0.3-2.4
	c-0.9,0.1-1.9,0.2-3,0.3c-1.1,0.1-2.2,0.2-3.4,0.2c-0.9,0-1.7-0.1-2.4-0.3c-0.7-0.2-1.2-0.5-1.6-0.9c-0.4-0.4-0.8-0.9-1-1.5
	c-0.2-0.6-0.4-1.4-0.4-2.3l3.8-0.2c0.4,0,0.9,0,1.4-0.1c0.5,0,1-0.1,1.6-0.1c0.5,0,1.1-0.1,1.6-0.2c0.6-0.1,1.1-0.1,1.6-0.2
	c0.5-0.1,1-0.1,1.5-0.2c0.5-0.1,0.9-0.1,1.2-0.2c0-0.3,0-0.5,0-0.8c0-0.3,0-0.5,0-0.8c0-0.9-0.1-1.7-0.1-2.4
	C669.2,110.3,669.1,109.6,668.8,109z M666.3,112.7c0,0.2,0,0.4,0,0.5c-0.4,0-0.8,0.1-1.3,0.1c-0.5,0.1-0.9,0.1-1.4,0.1
	c-0.5,0-1,0.1-1.4,0.1c-0.5,0-0.9,0.1-1.3,0.1l-4.2,0.2c0-1,0.1-1.9,0.2-2.7c0.1-0.8,0.4-1.5,0.7-2c0.4-0.6,0.9-1,1.5-1.3
	c0.6-0.3,1.5-0.4,2.5-0.4c0.9,0,1.6,0.1,2.2,0.3c0.6,0.2,1.1,0.5,1.5,0.9c0.4,0.4,0.6,0.9,0.8,1.5c0.2,0.6,0.2,1.2,0.2,2
	C666.3,112.3,666.3,112.5,666.3,112.7z" class="st1"></path>
<path d="M687.9,114.7c-0.5-0.4-1.1-0.7-1.8-1c-0.7-0.3-1.5-0.5-2.3-0.8c-0.5-0.2-1-0.3-1.5-0.5
	c-0.5-0.1-0.9-0.3-1.3-0.5c-0.4-0.2-0.7-0.5-0.9-0.8c-0.2-0.3-0.4-0.8-0.4-1.3c0-0.4,0.1-0.7,0.2-0.9c0.1-0.3,0.3-0.5,0.6-0.6
	c0.2-0.2,0.5-0.3,0.8-0.4c0.3-0.1,0.6-0.2,1-0.2c0.3,0,0.7-0.1,1-0.1c0.3,0,0.7,0,1,0c0.8,0,1.6,0,2.4,0.1c0.8,0.1,1.5,0.2,2.2,0.3
	l0.3-2.3c-0.5-0.1-1-0.2-1.5-0.3c-0.5-0.1-1-0.2-1.5-0.2c-0.5-0.1-1-0.1-1.5-0.1c-0.5,0-1.1,0-1.7,0c-0.9,0-1.7,0.1-2.5,0.2
	c-0.8,0.2-1.4,0.4-2,0.8c-0.6,0.4-1,0.9-1.3,1.5c-0.3,0.6-0.5,1.4-0.5,2.4c0,0.6,0.1,1.2,0.2,1.7c0.2,0.5,0.4,0.9,0.6,1.2
	c0.3,0.4,0.6,0.7,0.9,0.9c0.4,0.3,0.7,0.5,1.2,0.7c0.4,0.2,0.9,0.4,1.3,0.5c0.5,0.1,0.9,0.3,1.4,0.4c0.6,0.2,1.1,0.3,1.6,0.5
	c0.5,0.1,0.9,0.3,1.3,0.5c0.4,0.2,0.6,0.5,0.8,0.8c0.2,0.3,0.3,0.8,0.3,1.3c0,0.4-0.1,0.8-0.2,1.1c-0.2,0.3-0.4,0.5-0.6,0.7
	c-0.3,0.2-0.5,0.3-0.9,0.4c-0.3,0.1-0.7,0.2-1,0.2c-0.4,0-0.7,0.1-1.1,0.1c-0.4,0-0.7,0-1,0c-0.4,0-0.8,0-1.2,0
	c-0.4,0-0.8-0.1-1.2-0.1c-0.4,0-0.8-0.1-1.2-0.2c-0.4-0.1-0.8-0.1-1.1-0.2l-0.3,2.4c1,0.2,1.9,0.4,3,0.5c1,0.1,2,0.2,3,0.2
	c1,0,1.9-0.1,2.8-0.2c0.8-0.2,1.6-0.4,2.2-0.8c0.6-0.4,1.1-0.9,1.5-1.6c0.4-0.7,0.5-1.5,0.5-2.5c0-0.9-0.1-1.7-0.4-2.2
	C688.8,115.6,688.4,115.1,687.9,114.7z" class="st1"></path>
<path d="M710.3,107c-0.7-0.7-1.5-1.2-2.6-1.5c-1-0.3-2.3-0.5-3.8-0.5c-0.6,0-1.2,0-1.8,0.1c-0.6,0.1-1.2,0.1-1.8,0.3
	c-0.6,0.1-1.2,0.3-1.7,0.5c-0.6,0.2-1.1,0.4-1.6,0.7c0,0.5-0.1,1.1-0.1,1.6c0,0.5,0,1.1,0,1.6v20.3h3.1v-7c0.7,0.2,1.5,0.3,2.2,0.4
	c0.8,0.1,1.5,0.2,2.3,0.2c1.4,0,2.5-0.2,3.5-0.5c1-0.3,1.8-0.8,2.4-1.6c0.6-0.7,1.1-1.7,1.4-2.9c0.3-1.2,0.4-2.6,0.4-4.4
	c0-1.8-0.2-3.2-0.5-4.4C711.5,108.7,711,107.8,710.3,107z M709.1,116.4c0,0.6-0.1,1.2-0.3,1.7c-0.1,0.5-0.3,0.9-0.6,1.3
	c-0.2,0.4-0.6,0.7-1,1c-0.4,0.3-0.9,0.5-1.5,0.6c-0.6,0.1-1.3,0.2-2.1,0.2c-0.3,0-0.6,0-0.9,0c-0.3,0-0.6-0.1-1-0.1
	c-0.3-0.1-0.6-0.1-0.9-0.2c-0.3-0.1-0.6-0.2-0.8-0.2v-9.6c0-0.4,0-0.9,0-1.3c0-0.5,0-0.9,0.1-1.3c0.3-0.1,0.5-0.2,0.9-0.3
	c0.3-0.1,0.6-0.2,1-0.2c0.3-0.1,0.7-0.1,1-0.1c0.3,0,0.7,0,1,0c0.7,0,1.4,0.1,1.9,0.2c0.5,0.1,1,0.4,1.4,0.6c0.4,0.3,0.7,0.6,0.9,1
	c0.2,0.4,0.4,0.8,0.6,1.4c0.1,0.5,0.2,1.1,0.3,1.7c0.1,0.6,0.1,1.3,0.1,1.9C709.1,115.1,709.1,115.8,709.1,116.4z" class="st1"></path>
<rect height="18.1" width="3.1" class="st1" y="105.3" x="720"></rect>
<path d="M723,98.5c-0.1-0.2-0.3-0.3-0.6-0.4c-0.2-0.1-0.5-0.1-0.9-0.1c-0.4,0-0.7,0-0.9,0.1c-0.2,0.1-0.4,0.2-0.6,0.4
	c-0.1,0.2-0.3,0.4-0.3,0.6c-0.1,0.3-0.1,0.6-0.1,1c0,0.4,0,0.7,0.1,1c0.1,0.3,0.2,0.5,0.3,0.6c0.1,0.2,0.3,0.3,0.6,0.3
	c0.2,0.1,0.6,0.1,0.9,0.1c0.4,0,0.7,0,0.9-0.1c0.2-0.1,0.4-0.2,0.6-0.3c0.1-0.2,0.2-0.4,0.3-0.6c0.1-0.3,0.1-0.6,0.1-1
	c0-0.4,0-0.7-0.1-1C723.3,98.9,723.2,98.7,723,98.5z" class="st1"></path>
<path d="M738.6,105c-0.6,0-1.2,0-1.8,0.1c-0.6,0.1-1.2,0.1-1.8,0.3c-0.6,0.1-1.2,0.3-1.8,0.5c-0.6,0.2-1.1,0.4-1.6,0.7
	c0,0.5-0.1,1.1-0.1,1.6c0,0.5,0,1.1,0,1.6v13.6h3.1V111c0-0.4,0-0.9,0-1.3c0-0.5,0-0.9,0.1-1.3c0.3-0.1,0.5-0.2,0.9-0.3
	c0.3-0.1,0.6-0.2,1-0.2c0.3-0.1,0.7-0.1,1-0.1c0.3,0,0.7,0,1,0c0.3,0,0.5,0,0.8,0c0.2,0,0.5,0,0.7,0.1l0.3-2.6c-0.3,0-0.5,0-0.8-0.1
	C739.2,105,738.9,105,738.6,105z" class="st1"></path>
<rect height="18.1" width="3.1" class="st1" y="105.3" x="747.2"></rect>
<path d="M750.2,98.5c-0.1-0.2-0.3-0.3-0.6-0.4c-0.2-0.1-0.5-0.1-0.9-0.1c-0.4,0-0.7,0-0.9,0.1c-0.2,0.1-0.4,0.2-0.6,0.4
	c-0.1,0.2-0.3,0.4-0.3,0.6s-0.1,0.6-0.1,1c0,0.4,0,0.7,0.1,1c0.1,0.3,0.2,0.5,0.3,0.6c0.1,0.2,0.3,0.3,0.6,0.3
	c0.2,0.1,0.6,0.1,0.9,0.1c0.4,0,0.7,0,0.9-0.1c0.2-0.1,0.4-0.2,0.6-0.3c0.1-0.2,0.2-0.4,0.3-0.6c0.1-0.3,0.1-0.6,0.1-1
	c0-0.4,0-0.7-0.1-1C750.5,98.9,750.4,98.7,750.2,98.5z" class="st1"></path>
</svg>
